<?xml version="1.0" encoding="UTF-8"?>
<svg width="48px" height="48px" viewBox="0 0 48 48" version="1.1" xmlns="http://www.w3.org/2000/svg" xmlns:xlink="http://www.w3.org/1999/xlink">
    <!-- Generator: Sketch 61 (89581) - https://sketch.com -->
    <title>Group</title>
    <desc>Created with Sketch.</desc>
    <defs>
        <linearGradient x1="50%" y1="0%" x2="50%" y2="100%" id="linearGradient-1">
            <stop stop-color="#FFBE88" offset="0%"></stop>
            <stop stop-color="#FF5A70" offset="100%"></stop>
        </linearGradient>
    </defs>
    <g id="Page-1" stroke="none" stroke-width="1" fill="none" fill-rule="evenodd">
        <g id="Plugin-Activation---02" transform="translate(-303.000000, -386.000000)">
            <g id="Group-6" transform="translate(263.000000, 110.000000)">
                <g id="Group-5-Copy-2" transform="translate(40.000000, 276.000000)">
                    <g id="Group-26">
                        <g id="Group-29">
                            <g id="Group">
                                <circle id="Oval" fill="url(#linearGradient-1)" cx="24" cy="24" r="24"></circle>
                                <path d="M18.9027124,24.8905412 C21.2613079,23.97474 23.9656667,24.514434 25.743,26.2556198 C26.4266637,26.9265976 26.934485,27.7424946 27.225,28.6366924 C27.4201125,29.2150788 27.5183232,29.8192759 27.5160403,30.426938 C27.5160403,30.7434314 27.2473708,31 26.916,31 L26.916,31 L15.6,31 C15.2686292,31 15,30.7434314 15,30.426938 C15.0011504,27.9951982 16.5441169,25.8063424 18.9027124,24.8905412 Z M28.5,24.5072077 C30.9841847,24.5097345 32.9973544,26.4325195 33,28.8051726 C33,29.121666 32.7313708,29.3782346 32.4,29.3782346 L32.4,29.3782346 L28.6344,29.3782346 C28.578863,29.0123395 28.4911529,28.651563 28.3722,28.2997319 C28.0248772,27.2310569 27.4179752,26.2559342 26.601,25.4539061 C26.478,25.3335631 26.3466,25.2241082 26.2164,25.1129342 C26.9070459,24.7192931 27.6957325,24.5100934 28.5,24.5072077 Z M28.5,18.9656983 C29.9083261,18.9656983 31.05,20.0561148 31.05,21.4012117 C31.05,22.7463087 29.9083261,23.8367252 28.5,23.8367252 C27.0916739,23.8367252 25.95,22.7463087 25.95,21.4012117 C25.95,20.0561148 27.0916739,18.9656983 28.5,18.9656983 Z M19.9447627,17.2495585 C21.226073,16.7424625 22.7010454,17.0225203 23.6818569,17.9591328 C24.6626685,18.8957452 24.9561492,20.3044472 24.4254403,21.5283196 C23.8947314,22.752192 22.6443556,23.5501942 21.2574,23.5501942 C19.3645352,23.5486149 17.8303848,22.0835992 17.8283999,20.275718 C17.8281573,18.9510321 18.6634525,17.7566544 19.9447627,17.2495585 Z" id="Combined-Shape" fill="#FFFFFF" fill-rule="nonzero"></path>
                            </g>
                        </g>
                    </g>
                </g>
            </g>
        </g>
    </g>
</svg>