<?xml version="1.0" encoding="UTF-8"?>
<svg width="16px" height="12px" viewBox="0 0 16 12" version="1.1" xmlns="http://www.w3.org/2000/svg" xmlns:xlink="http://www.w3.org/1999/xlink">
    <!-- Generator: Sketch 61 (89581) - https://sketch.com -->
    <title>Combined Shape</title>
    <desc>Created with Sketch.</desc>
    <g id="Page-1" stroke="none" stroke-width="1" fill="none" fill-rule="evenodd">
        <g id="Plugin-Activation---02" transform="translate(-404.000000, -485.000000)" fill="#787C83" fill-rule="nonzero">
            <g id="Group-6" transform="translate(263.000000, 110.000000)">
                <path d="M154.070012,378 C154.655012,378.890215 155,379.939038 155,381.070746 C155,384.256882 152.314977,386.837479 148.999988,386.837479 L148.999988,386.837479 L148.999988,389 L146,386.11665 L148.999988,383.2333 L148.999988,385.395821 C151.486238,385.395821 153.499988,383.460365 153.499988,381.07078 C153.499988,380.339138 153.308738,379.654328 152.975,379.052438 L152.975,379.052438 Z M149.000012,373 L152,375.883341 L149.000012,378.766716 L149.000012,376.604202 C146.513762,376.604202 144.500012,378.539652 144.500012,380.92923 C144.500012,381.660869 144.691262,382.345677 145.025,382.947565 L145.025,382.947565 L143.929988,384 C143.344988,383.109754 143,382.060934 143,380.92923 C143,377.743103 145.684988,375.162514 149.000012,375.162514 L149.000012,375.162514 L149.000012,373 Z" id="Combined-Shape" transform="translate(149.000000, 381.000000) rotate(-270.000000) translate(-149.000000, -381.000000) "></path>
            </g>
        </g>
    </g>
</svg>