<?xml version="1.0" encoding="UTF-8"?>
<svg width="48px" height="48px" viewBox="0 0 48 48" version="1.1" xmlns="http://www.w3.org/2000/svg" xmlns:xlink="http://www.w3.org/1999/xlink">
    <!-- Generator: Sketch 61 (89581) - https://sketch.com -->
    <title>Group</title>
    <desc>Created with Sketch.</desc>
    <defs>
        <linearGradient x1="50%" y1="0%" x2="50%" y2="100%" id="linearGradient-1">
            <stop stop-color="#F482E6" offset="0%"></stop>
            <stop stop-color="#AD6FFF" offset="100%"></stop>
        </linearGradient>
    </defs>
    <g id="Page-1" stroke="none" stroke-width="1" fill="none" fill-rule="evenodd">
        <g id="Plugin-Activation---02" transform="translate(-303.000000, -308.000000)">
            <g id="Group-6" transform="translate(263.000000, 110.000000)">
                <g id="Group-5-Copy" transform="translate(40.000000, 198.000000)">
                    <g id="Group-26">
                        <g id="Group-29">
                            <g id="Group">
                                <circle id="Oval" fill="url(#linearGradient-1)" cx="24" cy="24" r="24"></circle>
                                <path d="M26.3034798,17.7745912 L26.3034798,19.7169986 C26.3034798,20.5918063 27.0388704,21.2967656 27.9334465,21.2967656 L27.9334465,21.2967656 L28.9555653,21.2967656 C29.8500744,21.2967656 30.5758448,20.5918063 30.5758448,19.7169986 L30.5758448,19.7169986 L30.5758448,17.7815398 C31.3576268,17.8045818 32,18.4371375 32,19.2146315 L32,19.2146315 L32,30.5573376 C32,31.348106 31.3422077,32 30.5333417,32 L30.5333417,32 L17.4666583,32 C16.6565856,32 16,31.3494499 16,30.5573376 L16,30.5573376 L16,19.2146315 C16,18.4371375 16.6424067,17.8045818 17.4241887,17.7815398 L17.4241887,17.7815398 L17.4241887,19.7169986 C17.4241887,20.5918063 18.1499256,21.2967656 19.0444011,21.2967656 L19.0444011,21.2967656 L20.0667211,21.2967656 C20.9611631,21.2967656 21.6965202,20.5918063 21.6965202,19.7169986 L21.6965202,19.7169986 L21.6965202,17.7745912 L26.3034798,17.7745912 Z M29.4670102,23.3719182 L18.5050343,23.3719182 C18.154786,23.3719182 17.870974,23.6496344 17.870974,23.9920844 L17.870974,23.9920844 L17.870974,29.8510016 C17.870974,30.1933205 18.1548195,30.4710367 18.5050343,30.4710367 L18.5050343,30.4710367 L29.4670438,30.4710367 C29.8172585,30.4710367 30.1011041,30.1933205 30.1011041,29.8510016 L30.1011041,29.8510016 L30.1011041,23.9920844 C30.1011041,23.6496344 29.817225,23.3719182 29.4670102,23.3719182 L29.4670102,23.3719182 Z M21.4088534,27.6315991 C21.6139945,27.6315991 21.7802527,27.7938433 21.7802527,27.9946001 L21.7802527,27.9946001 L21.7802527,29.2615143 C21.7802527,29.4620416 21.6139945,29.6244825 21.4088534,29.6244825 L21.4088534,29.6244825 L20.1128108,29.6244825 C19.9079044,29.6244825 19.7416127,29.4620744 19.7416127,29.2615143 L19.7416127,29.2615143 L19.7416127,27.9946001 C19.7416127,27.7938433 19.9079044,27.6315991 20.1128108,27.6315991 L20.1128108,27.6315991 Z M24.6482056,27.6315991 C24.8529445,27.6315991 25.0192362,27.7938433 25.0192362,27.9946001 L25.0192362,27.9946001 L25.0192362,29.2615143 C25.0192362,29.4620416 24.8529445,29.6244825 24.6482056,29.6244825 L24.6482056,29.6244825 L23.3519955,29.6244825 C23.147089,29.6244825 22.9807974,29.4620744 22.9807974,29.2615143 L22.9807974,29.2615143 L22.9807974,27.9946001 C22.9807974,27.7938433 23.147089,27.6315991 23.3519955,27.6315991 L23.3519955,27.6315991 Z M27.8873568,27.6315991 C28.0920956,27.6315991 28.2583873,27.7938433 28.2583873,27.9946001 L28.2583873,27.9946001 L28.2583873,29.2615143 C28.2583873,29.4620416 28.0920956,29.6244825 27.8873568,29.6244825 L27.8873568,29.6244825 L26.5911466,29.6244825 C26.3860055,29.6244825 26.2197473,29.4620744 26.2197473,29.2615143 L26.2197473,29.2615143 L26.2197473,27.9946001 C26.2197473,27.7938433 26.3860055,27.6315991 26.5911466,27.6315991 L26.5911466,27.6315991 Z M21.4088534,24.4642971 C21.6139945,24.4642971 21.7802527,24.6266724 21.7802527,24.8271013 L21.7802527,24.8271013 L21.7802527,26.094245 C21.7802527,26.2949362 21.6139945,26.4573771 21.4088534,26.4573771 L21.4088534,26.4573771 L20.1128108,26.4573771 C19.9079044,26.4573771 19.7416127,26.2949362 19.7416127,26.094245 L19.7416127,26.094245 L19.7416127,24.8271013 C19.7416127,24.6266724 19.9079044,24.4642971 20.1128108,24.4642971 L20.1128108,24.4642971 Z M24.6482056,24.4642971 C24.8529445,24.4642971 25.0192362,24.6266724 25.0192362,24.8271013 L25.0192362,24.8271013 L25.0192362,26.094245 C25.0192362,26.2949362 24.8529445,26.4573771 24.6482056,26.4573771 L24.6482056,26.4573771 L23.3519955,26.4573771 C23.147089,26.4573771 22.9807974,26.2949362 22.9807974,26.094245 L22.9807974,26.094245 L22.9807974,24.8271013 C22.9807974,24.6266724 23.147089,24.4642971 23.3519955,24.4642971 L23.3519955,24.4642971 Z M27.8871892,24.4642971 C28.0920956,24.4642971 28.2583873,24.6266724 28.2583873,24.8271013 L28.2583873,24.8271013 L28.2583873,26.094245 C28.2583873,26.2949362 28.0920956,26.4573771 27.8871892,26.4573771 L27.8871892,26.4573771 L26.5911466,26.4573771 C26.3860055,26.4573771 26.2197473,26.2949362 26.2197473,26.094245 L26.2197473,26.094245 L26.2197473,24.8271013 C26.2197473,24.6266724 26.3860055,24.4642971 26.5911466,24.4642971 L26.5911466,24.4642971 Z M20.0518384,16 C20.358712,16 20.6075294,16.2431041 20.6075294,16.5432067 L20.6075294,16.5432067 L20.6075294,19.7161464 C20.6075294,20.0162162 20.358712,20.2591565 20.0518384,20.2591565 L20.0518384,20.2591565 L19.0408145,20.2591565 C18.7339074,20.2591565 18.4851235,20.0162162 18.4851235,19.7161464 L18.4851235,19.7161464 L18.4851235,16.5432067 C18.4851235,16.2431041 18.7339074,16 19.0408145,16 L19.0408145,16 Z M28.9314646,16 C29.2381707,16 29.486988,16.2431041 29.4869545,16.5432067 L29.4869545,16.5432067 L29.4869545,19.7161464 C29.4869545,20.0162162 29.2381371,20.2591565 28.9314646,20.2591565 L28.9314646,20.2591565 L27.9204408,20.2591565 C27.6136007,20.2591565 27.3647833,20.0162162 27.3647833,19.7161464 L27.3647833,19.7161464 L27.3647833,16.5432067 C27.3647833,16.2431041 27.6136007,16 27.9204408,16 L27.9204408,16 Z" id="Combined-Shape" fill="#FFFFFF" fill-rule="nonzero"></path>
                            </g>
                        </g>
                    </g>
                </g>
            </g>
        </g>
    </g>
</svg>