<?xml version="1.0" encoding="UTF-8"?>
<svg width="48px" height="48px" viewBox="0 0 48 48" version="1.1" xmlns="http://www.w3.org/2000/svg" xmlns:xlink="http://www.w3.org/1999/xlink">
    <!-- Generator: Sketch 61 (89581) - https://sketch.com -->
    <title>Group</title>
    <desc>Created with Sketch.</desc>
    <defs>
        <linearGradient x1="50%" y1="0%" x2="50%" y2="100%" id="linearGradient-1">
            <stop stop-color="#72D0FF" offset="0%"></stop>
            <stop stop-color="#349EFA" offset="100%"></stop>
        </linearGradient>
    </defs>
    <g id="Page-1" stroke="none" stroke-width="1" fill="none" fill-rule="evenodd">
        <g id="Plugin-Activation---02" transform="translate(-303.000000, -229.000000)">
            <g id="Group-6" transform="translate(263.000000, 110.000000)">
                <g id="Group-5" transform="translate(40.000000, 119.000000)">
                    <g id="Group-26">
                        <g id="Group-29">
                            <g id="Group">
                                <circle id="Oval" fill="url(#linearGradient-1)" cx="24" cy="24" r="24"></circle>
                                <path d="M15.0815953,27.5810432 L18.7233536,28.8802141 L18.6530208,28.9283326 C18.5714369,28.9847014 18.5165633,29.0251734 18.4647606,29.0667806 L18.4647606,29.0667806 L18.430421,29.0948739 C18.2373217,29.2555976 18.1262664,29.4119959 18.118212,29.6249452 C18.1101835,29.8372078 18.2084728,30.0008467 18.3882076,30.1756296 L18.3882076,30.1756296 L18.3991917,30.1862512 C18.4723787,30.2566148 18.5460307,30.3191178 18.6968635,30.4386339 L18.6968635,30.4386339 L18.8868911,30.5878596 C21.9951165,33.0159643 26.7058298,32.836048 29.6152852,30.1784889 C29.6274926,30.1673149 29.6385107,30.1570583 29.6501917,30.1459694 L29.6501917,30.1459694 L29.7413058,30.0572203 L29.8013036,29.9994172 L29.9085609,30.5757822 C29.9438111,30.7711615 29.9687417,30.9200916 29.9908503,31.0685003 L29.9908503,31.0685003 L30.0170353,31.2503263 C30.1129402,31.8495646 30.541602,32.0681929 31.1372013,31.8372839 L31.1372013,31.8372839 L31.3348886,31.7614748 C31.5255958,31.6891898 31.7169956,31.6192059 31.9603371,31.5326716 L31.9603371,31.5326716 L32.2432702,31.4327645 L32.1722434,31.5109264 C31.251607,32.5127965 30.1390964,33.3158562 28.8423255,33.9184825 C24.4199226,35.9736038 19.2811154,35.0464558 15.9473526,31.5914098 L15.9473526,31.5914098 L15.9194382,31.5628139 C15.4360956,31.0736048 14.9786517,30.9205555 14.470143,31.195674 L14.470143,31.195674 L14.4472704,31.2082616 L14.7839746,29.2994342 C14.8642781,28.8455467 14.9236045,28.5073051 14.9764095,28.2007715 L14.9764095,28.2007715 L15.0815953,27.5810432 Z M26.2273347,14.00718 L26.3072206,14.0214425 C26.6689387,14.0890658 27.0598289,14.199155 27.5109444,14.3524801 C33.2469441,16.3015542 36.224406,21.8657182 34.5243866,27.4712667 L34.5243866,27.4712667 L34.5127759,27.5103914 C34.3172469,28.1845171 34.4199359,28.6490829 34.9200779,28.947445 L34.9200779,28.947445 L34.9315824,28.9540968 L33.3601695,29.5148932 C32.8030339,29.7134057 32.4080686,29.854525 32.0609418,29.9794299 L32.0609418,29.9794299 L31.3427735,30.2393361 L31.2081795,29.456598 L30.7025126,26.5937328 L30.7831803,26.6364548 C30.9026102,26.6991705 30.9782453,26.7363157 31.049091,26.7659381 L31.049091,26.7659381 L31.0842953,26.780206 C31.2681169,26.8523835 31.4277479,26.8744928 31.6004268,26.8078017 C31.7867142,26.7358548 31.888124,26.5977042 31.9524006,26.4119623 C31.980673,26.3302628 32.0020116,26.2412228 32.0285355,26.1007721 L32.0285355,26.1007721 L32.0478755,25.9947817 C32.629964,22.7149059 31.5608918,20.0262816 28.8435334,18.0134913 L28.8435334,18.0134913 L28.7729848,17.9619653 C28.0402467,17.4342721 27.1913225,17.0531135 26.191776,16.7741397 L26.191776,16.7741397 L26.1505224,16.7627651 L26.313976,16.6299547 C26.5708666,16.4222019 26.7688991,16.2680219 26.9649061,16.1250489 L26.9649061,16.1250489 L27.0973429,16.0294128 C27.6676969,15.6057245 27.6243865,15.0857705 27.0560095,14.6627317 C26.8017849,14.4734193 26.5570044,14.2813314 26.3202655,14.0849643 L26.3202655,14.0849643 L26.2273347,14.00718 Z M25.1570555,19.9919076 C25.131768,20.4184175 25.3242143,20.6389237 25.7229972,20.8070154 C26.4930199,21.1316654 26.8711454,21.7545868 27.009455,22.5365787 C27.0975458,23.0354868 26.8800494,23.2371512 26.3752489,23.2582769 C25.7888872,23.2829425 25.2884793,23.2775754 25.1483889,22.5389768 C25.0610104,22.0778665 24.6203191,21.9675563 24.1640753,22.0018141 C23.7903425,22.0297913 23.5229834,22.1935437 23.4378606,22.5609018 C23.3374229,22.994149 23.5261888,23.3215396 23.9202229,23.5031061 C24.4000921,23.7240691 24.9098789,23.8838247 25.3977024,24.0900568 C26.385815,24.5080023 27.0910162,25.132865 27.0908974,26.2703389 C27.0908974,27.2549088 26.6471194,27.9562806 25.6979471,28.3175864 C25.3372736,28.4548461 25.1298684,28.6148302 25.1565806,29.0090235 C25.1951648,29.5746202 24.811222,29.6427932 24.3435811,29.6426792 C23.8881683,29.6425649 23.5415038,29.5584048 23.5959966,29.0206712 C23.6318503,28.6681582 23.4541254,28.5179947 23.1181457,28.4250418 C22.2651373,28.1892338 21.6508762,27.6905541 21.4153343,26.8376485 C21.2005685,26.0603384 21.3961015,25.8233885 22.2989727,25.824302 C22.7568785,25.7551012 23.0904838,25.9172549 23.189853,26.4804536 C23.2564553,26.858089 23.5870926,27.0391987 23.966524,27.0822493 C24.3847771,27.1297535 24.8119343,27.1327225 25.1162156,26.784663 C25.4050631,26.4544176 25.2859862,25.9294736 24.8727193,25.641822 C24.4805848,25.3690156 24.0038023,25.2848555 23.5675036,25.109798 C22.7905952,24.798166 22.0519148,24.4375453 21.7483459,23.595488 C21.3236819,22.4179325 21.8270578,21.2559071 23.0224568,20.7667054 C23.4182717,20.6047801 23.6424164,20.4243555 23.6018139,19.981516 C23.5530197,19.4512049 23.9457479,19.4337335 24.3510605,19.4327057 C24.7709757,19.431678 25.1905347,19.4276812 25.1570555,19.9919076 Z M22.6108639,13 L24.6150259,14.5858188 C24.8134937,14.7419283 24.9874514,14.877938 25.1574726,15.0099074 L25.1574726,15.0099074 L25.5420568,15.306796 L25.5614936,15.3220244 C25.5738469,15.3319064 25.584996,15.3412406 25.5949712,15.3499848 L25.5949712,15.3499848 L25.6072564,15.3610492 L25.5910254,15.3762528 C25.5709725,15.3944024 25.5467565,15.4146838 25.5182382,15.4369803 C25.2980981,15.6090409 25.0982534,15.7664537 24.8648411,15.9518564 L24.8648411,15.9518564 L23.2249437,17.2637578 L22.6090831,17.7540724 L22.6081469,17.7303378 C22.60084,17.566853 22.5937157,17.4702753 22.5811061,17.3836495 L22.5811061,17.3836495 L22.5748761,17.3441676 C22.5396374,17.1368315 22.4666822,16.9814297 22.2999709,16.8721221 C22.1326488,16.7624141 21.9548678,16.7542818 21.7413826,16.799555 C21.6523189,16.8184425 21.5640445,16.8439078 21.4177203,16.892457 L21.4177203,16.892457 L21.2498669,16.9493123 L21.1291097,16.9917505 C17.2023676,18.4040119 15.0434562,22.3504901 16.027562,26.3106418 L16.027562,26.3106418 L16.0529683,26.4096541 L15.9225362,26.3674813 C15.550263,26.2459375 15.26444,26.1418517 14.9939148,26.0260898 L14.9939148,26.0260898 L14.962185,26.0128505 C14.3093107,25.7475528 13.8356765,25.9974574 13.7331899,26.6952889 L13.7331899,26.6952889 L13.7141186,26.8226256 C13.6859532,27.0070836 13.6561967,27.1859333 13.6172015,27.4047687 L13.6172015,27.4047687 L13.5611389,27.7127075 L13.5331888,27.6459188 C13.3310733,27.153616 13.1946313,26.6200216 13.112444,26.032076 C12.3119549,20.3004558 15.8482299,15.3700225 21.7184001,14.0375936 L21.7184001,14.0375936 L21.7567383,14.0285315 C22.3497124,13.882786 22.5838195,13.559535 22.6098677,13.0250215 L22.6098677,13.0250215 L22.6108639,13 Z" id="Combined-Shape" fill="#FFFFFF" fill-rule="nonzero"></path>
                            </g>
                        </g>
                    </g>
                </g>
            </g>
        </g>
    </g>
</svg>