<?xml version="1.0" encoding="UTF-8"?>
<svg width="31px" height="31px" viewBox="0 0 31 31" version="1.1" xmlns="http://www.w3.org/2000/svg" xmlns:xlink="http://www.w3.org/1999/xlink">
    <!-- Generator: Sketch 63.1 (92452) - https://sketch.com -->
    <title>Birthday This week</title>
    <desc>Created with Sketch.</desc>
    <defs>
        <linearGradient x1="50%" y1="0%" x2="50%" y2="100%" id="linearGradient-1">
            <stop stop-color="#FF9137" offset="0%"></stop>
            <stop stop-color="#FB435C" offset="100%"></stop>
        </linearGradient>
    </defs>
    <g id="Page-1" stroke="none" stroke-width="1" fill="none" fill-rule="evenodd">
        <g id="What's-happening-this-week" transform="translate(-401.000000, -616.000000)">
            <g id="Birthday-This-week" transform="translate(401.000000, 616.000000)">
                <rect id="Rectangle" fill="url(#linearGradient-1)" x="0" y="0" width="30.7999995" height="30.7999995" rx="4.89999992"></rect>
                <path d="M23,20.39375 L23,22.0625 C23,22.58 22.58,23 22.0625,23 L22.0625,23 L8.9375,23 C8.42,23 8,22.58 8,22.0625 L8,22.0625 L8,20.39375 C8.49875,20.8428125 9.1521875,21.125 9.875,21.125 C10.595,21.125 11.2521875,20.853125 11.75,20.406875 C12.2478125,20.853125 12.905,21.125 13.625,21.125 C14.345,21.125 15.0021875,20.853125 15.5,20.406875 C15.9978125,20.853125 16.655,21.125 17.375,21.125 C18.095,21.125 18.7521875,20.853125 19.25,20.406875 C19.7478125,20.853125 20.405,21.125 21.125,21.125 C21.8478125,21.125 22.50125,20.84375 23,20.39375 L23,20.39375 Z M22.0625,16.4375 C22.58,16.4375 23,16.8575 23,17.375 L23,17.375 L23,18.3125 C23,19.3484375 22.1609375,20.1875 21.125,20.1875 C20.0890625,20.1875 19.25,19.3484375 19.25,18.3125 C19.25,19.3484375 18.4109375,20.1875 17.375,20.1875 C16.3390625,20.1875 15.5,19.3484375 15.5,18.3125 C15.5,19.3484375 14.6609375,20.1875 13.625,20.1875 C12.5890625,20.1875 11.75,19.3484375 11.75,18.3125 C11.75,19.3484375 10.9109375,20.1875 9.875,20.1875 C8.8390625,20.1875 8,19.3484375 8,18.3125 L8,18.3125 L8,17.375 C8,16.8575 8.42,16.4375 8.9375,16.4375 L8.9375,16.4375 Z M15.96875,11.75 L15.96875,12.6875 L19.71875,12.6875 C20.495,12.6875 21.125,13.3175 21.125,14.09375 L21.125,14.09375 L21.125,15.5 L9.875,15.5 L9.875,14.09375 C9.875,13.3175 10.505,12.6875 11.28125,12.6875 L11.28125,12.6875 L15.03125,12.6875 L15.03125,11.75 L15.96875,11.75 Z M15.5,8 C15.5,8 16.4375,9.3575 16.4375,9.875 C16.4375,10.3925 16.0175,10.8125 15.5,10.8125 C14.9825,10.8125 14.5625,10.3925 14.5625,9.875 C14.5625,9.3575 15.5,8 15.5,8 Z" id="Combined-Shape" fill="#FFFFFF" fill-rule="nonzero"></path>
            </g>
        </g>
    </g>
</svg>