<?xml version="1.0" encoding="UTF-8"?>
<svg width="31px" height="31px" viewBox="0 0 31 31" version="1.1" xmlns="http://www.w3.org/2000/svg" xmlns:xlink="http://www.w3.org/1999/xlink">
    <!-- Generator: Sketch 63.1 (92452) - https://sketch.com -->
    <title>Contract About to End</title>
    <desc>Created with Sketch.</desc>
    <defs>
        <linearGradient x1="50%" y1="0%" x2="50%" y2="100%" id="linearGradient-1">
            <stop stop-color="#C2E998" offset="0%"></stop>
            <stop stop-color="#02CC87" offset="100%"></stop>
        </linearGradient>
    </defs>
    <g id="Page-1" stroke="none" stroke-width="1" fill="none" fill-rule="evenodd">
        <g id="What's-happening-this-week" transform="translate(-401.000000, -1146.000000)">
            <g id="Contract-About-to-End" transform="translate(401.000000, 1146.000000)">
                <rect id="Rectangle" fill="url(#linearGradient-1)" x="0" y="0" width="30.7999995" height="30.7999995" rx="4.89999992"></rect>
                <path d="M17.2559171,8.0157098 C17.5503835,7.93793587 17.840807,8.15860292 17.8439125,8.46419148 C17.8439125,8.4782816 17.8620768,9.77337131 18.1704594,11.5057526 C18.1938679,11.6372506 18.1603226,11.7724103 18.0779974,11.8776028 C17.0605924,13.1780239 16.4168444,14.750522 16.1287354,16.4150305 C16.0990573,16.5864261 15.9783527,16.7280303 15.8131749,16.7825453 C14.8526945,17.0994411 16.4543448,16.5619661 12.5393851,17.8667813 C12.2938743,17.9488027 12.1611579,18.2142008 12.2428971,18.4596793 C12.3085229,18.655945 12.4913377,18.7801489 12.6876291,18.7801489 C12.7931577,18.7801489 12.5663972,18.8459125 15.7280079,17.7981762 C15.8464566,17.758923 15.9679229,17.8497618 15.9634404,17.9744637 C15.9577568,18.1378036 15.8716229,18.2818978 15.7377638,18.3703345 C15.471452,18.5442786 15.303784,18.7975199 15.1395144,19.0537491 C14.8837496,19.4533108 14.7144116,19.7175371 14.0938962,19.7175371 C13.8293422,19.7175371 13.6160584,19.9363587 13.6254335,20.2029285 C13.6342227,20.457488 13.85278,20.6560971 14.1073729,20.6549254 C15.2309217,20.6496525 15.6507511,19.9937737 15.9290748,19.5590599 C16.0356581,19.4217326 16.1848982,19.4509966 16.2566178,19.5441203 C16.6529507,20.0597717 17.3783795,20.2642688 18.0138657,19.9606722 C18.8716594,19.5498032 19.7021187,18.8177616 20.4949603,17.7766455 C20.5321385,17.7277842 20.6084578,17.7379783 20.6318663,17.7947195 C21.2526746,18.6284092 21.9707498,19.2962983 22.7670485,19.7811038 C23.1350217,20.0047002 23.045255,20.5359063 22.6507092,20.6393999 C13.5096637,23.0446162 13.6876735,23.0058679 13.6337505,22.9989197 C13.5401492,22.9983959 13.4557732,22.9752541 13.3819442,22.9304353 C10.8499603,21.3937337 9.43777516,18.5272298 8.69233642,15.6346255 C8.07436015,13.2354975 8.00764059,11.1969359 8.00075902,10.8621972 L8.0000212,10.8170359 C7.99799204,10.6023154 8.14184144,10.4136661 8.34955881,10.3591804 L8.34955881,10.3591804 Z M20.4472937,11.3303146 C20.7290745,11.1897649 21.0670767,11.3621272 21.1188449,11.6726956 C21.4522767,13.6730528 20.9522022,15.6068261 19.6725871,17.2649487 C18.7149485,18.5059043 17.6632072,19.1535809 17.6189098,19.1805308 C17.3171776,19.3642004 16.927583,19.1599083 16.9071921,18.8071867 C16.9039401,18.7508262 16.8319275,17.4083984 17.2162779,15.8245345 C17.6842719,13.8962391 18.6862665,12.2083251 20.4472937,11.3303146 Z M11.4529851,10.9096442 L11.369576,10.9241618 C11.1195241,10.9911558 10.9711336,11.2481466 11.0381364,11.4981949 L11.0381364,11.4981949 L11.184564,12.0445751 C10.1012989,12.7695863 10.569117,14.3487632 11.7715047,14.507094 L11.7715047,14.507094 L12.5438969,14.6087713 C12.8347012,14.6470285 13.0095471,14.9602626 12.8782369,15.2133867 C12.7475712,15.4645482 12.1839511,15.6038382 11.9619074,15.4756504 C11.7376664,15.3462029 11.450993,15.4230101 11.3215871,15.6471924 C11.192152,15.8713454 11.2689693,16.1580104 11.4931517,16.2874286 C11.7527545,16.4372935 12.0682271,16.4792709 12.3656232,16.4516766 L12.3656232,16.4516766 L12.494033,16.9308284 C12.5501665,17.1402468 12.7395438,17.2783358 12.9465287,17.2783358 C13.2546184,17.2783358 13.4793868,16.9858707 13.3996104,16.6882206 L13.3996104,16.6882206 L13.2532415,16.1420455 C14.3308522,15.4209303 13.8767158,13.8387069 12.6662714,13.6793216 L12.6662714,13.6793216 L11.8938792,13.5776443 C11.6030749,13.5393871 11.428229,13.226153 11.5595392,12.9730288 C11.6901756,12.721926 12.2538543,12.5825774 12.4758687,12.7107652 C12.7000804,12.8401834 12.9867538,12.7633761 13.116189,12.5392232 C13.2456242,12.3150702 13.1688068,12.0284052 12.9446244,11.898987 C12.6954222,11.7551565 12.3846079,11.7059436 12.0721822,11.7348855 L12.0721822,11.7348855 L11.9437138,11.2555579 C11.8766818,11.0055681 11.6198915,10.8571386 11.369576,10.9241618 Z" id="Combined-Shape" fill="#FFFFFF" fill-rule="nonzero"></path>
            </g>
        </g>
    </g>
</svg>