<?xml version="1.0" encoding="UTF-8"?>
<svg width="31px" height="31px" viewBox="0 0 31 31" version="1.1" xmlns="http://www.w3.org/2000/svg" xmlns:xlink="http://www.w3.org/1999/xlink">
    <!-- Generator: Sketch 63.1 (92452) - https://sketch.com -->
    <title>Trainee About to End</title>
    <desc>Created with Sketch.</desc>
    <defs>
        <linearGradient x1="50%" y1="0%" x2="50%" y2="100%" id="linearGradient-1">
            <stop stop-color="#F482E6" offset="0%"></stop>
            <stop stop-color="#AD6FFF" offset="100%"></stop>
        </linearGradient>
    </defs>
    <g id="Page-1" stroke="none" stroke-width="1" fill="none" fill-rule="evenodd">
        <g id="What's-happening-this-week" transform="translate(-401.000000, -1363.000000)">
            <g id="Trainee-About-to-End" transform="translate(401.000000, 1363.000000)">
                <rect id="Rectangle" fill="url(#linearGradient-1)" x="0" y="0" width="30.7999995" height="30.7999995" rx="4.89999992"></rect>
                <path d="M16.7011719,18.2539062 L16.7011719,23 L10.9296875,23 L10.9296875,21.4765625 C10.9296875,21.2268066 10.7213574,21.0257129 10.4689941,21.0376074 C10.232627,21.0487402 10.0507812,21.2523535 10.0507812,21.4889844 L10.0507812,21.4889844 L10.0507812,23 L8.43945312,23 C8.19675781,23 8,22.8032422 8,22.5605469 L8,22.5605469 L8,21.5644531 C8,19.7360938 9.4821875,18.2539062 11.3105469,18.2539062 L11.3105469,18.2539062 L16.7011719,18.2539062 Z M20.5830078,15.2363281 C21.0684277,15.2363281 21.4619141,15.6298145 21.4619141,16.1152344 L22.4140625,16.1152344 C22.7376758,16.1152344 23,16.3775586 23,16.7011719 L23,16.7011719 L23,22.4140625 C23,22.7376758 22.7376758,23 22.4140625,23 L22.4140625,23 L17.5800781,23 L17.5800781,16.7011719 C17.5800781,16.3775586 17.8424023,16.1152344 18.1660156,16.1152344 L18.1660156,16.1152344 L19.1181641,16.1152344 C19.1181641,15.6298145 19.5116504,15.2363281 19.9970703,15.2363281 L20.5830078,15.2363281 Z M21.0224609,20.3925781 L19.5576172,20.3925781 C19.3149219,20.3925781 19.1181641,20.5893359 19.1181641,20.8320312 C19.1181641,21.0747266 19.3149219,21.2714844 19.5576172,21.2714844 L19.5576172,21.2714844 L21.0224609,21.2714844 C21.2651563,21.2714844 21.4619141,21.0747266 21.4619141,20.8320312 C21.4619141,20.5893359 21.2651563,20.3925781 21.0224609,20.3925781 L21.0224609,20.3925781 Z M21.0224609,18.6347656 L19.5576172,18.6347656 C19.3149219,18.6347656 19.1181641,18.8315234 19.1181641,19.0742188 C19.1181641,19.3169141 19.3149219,19.5136719 19.5576172,19.5136719 L19.5576172,19.5136719 L21.0224609,19.5136719 C21.2651563,19.5136719 21.4619141,19.3169141 21.4619141,19.0742188 C21.4619141,18.8315234 21.2651563,18.6347656 21.0224609,18.6347656 L21.0224609,18.6347656 Z M12.8339844,8 C13.026377,8 13.2014844,8.12588867 13.2573828,8.32077148 C13.2881152,8.42799805 13.2715625,8.54234375 13.2235742,8.64303711 C13.1456152,8.80660156 13.2110937,8.94417969 13.2432617,8.99624023 C13.270459,9.04025879 13.3416829,9.13288167 13.4724976,9.16253323 L13.5582617,9.171875 L15.4707031,9.171875 C16.3111849,9.171875 17.0013549,9.81535156 17.0754464,10.6365379 L17.0820312,10.7832031 L17.0818125,12.543 L17.1629851,12.5478633 C17.5963623,12.602096 17.9316406,12.9718419 17.9316406,13.4199219 C17.9316406,13.8952499 17.5543454,14.2824272 17.0828881,14.2983206 C17.0820312,15.9950293 15.7020605,17.375 14.0058594,17.375 C12.3702368,17.375 11.0286602,16.0918385 10.9349195,14.4793054 L10.9296875,14.2988281 L10.9288125,14.296 L10.8487336,14.2919804 C10.4153564,14.2377478 10.0800781,13.8680018 10.0800781,13.4199219 C10.0800781,12.9445938 10.4573733,12.5574165 10.9288306,12.5415231 L10.9286798,11.1222762 C10.2464774,10.8806807 9.7578125,10.2298274 9.7578125,9.46484375 C9.7578125,8.70342831 10.3387641,8.07768761 11.0815831,8.00670571 L11.2226562,8 L12.8339844,8 Z" id="Combined-Shape" fill="#FFFFFF" fill-rule="nonzero"></path>
            </g>
        </g>
    </g>
</svg>