<?xml version="1.0" encoding="UTF-8"?>
<svg width="133px" height="29px" viewBox="0 0 133 29" version="1.1" xmlns="http://www.w3.org/2000/svg" xmlns:xlink="http://www.w3.org/1999/xlink">
    <!-- Generator: Sketch 63.1 (92452) - https://sketch.com -->
    <title>weDevs Logo</title>
    <desc>Created with Sketch.</desc>
    <defs>
        <radialGradient cx="50.0018229%" cy="50.277686%" fx="50.0018229%" fy="50.277686%" r="56.7020833%" gradientTransform="translate(0.500018,0.502777),scale(1.000000,0.793388),translate(-0.500018,-0.502777)" id="radialGradient-1">
            <stop stop-color="#FFC713" offset="0%"></stop>
            <stop stop-color="#FCBF18" offset="11.81%"></stop>
            <stop stop-color="#F5AB20" offset="31.58%"></stop>
            <stop stop-color="#EC8C26" offset="56.88%"></stop>
            <stop stop-color="#E16228" offset="86.46%"></stop>
            <stop stop-color="#E05B29" offset="90.3%"></stop>
            <stop stop-color="#DD5430" offset="100%"></stop>
        </radialGradient>
        <linearGradient x1="0.144204022%" y1="50.2119652%" x2="100.219725%" y2="50.2119652%" id="linearGradient-2">
            <stop stop-color="#147BC1" offset="0%"></stop>
            <stop stop-color="#1774B3" offset="22%"></stop>
            <stop stop-color="#17659B" offset="58.82%"></stop>
            <stop stop-color="#12527E" offset="100%"></stop>
        </linearGradient>
        <radialGradient cx="28.1596012%" cy="33.6654417%" fx="28.1596012%" fy="33.6654417%" r="55.6673062%" gradientTransform="translate(0.281596,0.336654),scale(1.000000,0.822635),translate(-0.281596,-0.336654)" id="radialGradient-3">
            <stop stop-color="#B8D435" offset="0%"></stop>
            <stop stop-color="#B2D137" offset="13.06%"></stop>
            <stop stop-color="#A2C93B" offset="30.4%"></stop>
            <stop stop-color="#87BE41" offset="50.15%"></stop>
            <stop stop-color="#5EB046" offset="71.53%"></stop>
            <stop stop-color="#3FA948" offset="81.82%"></stop>
            <stop stop-color="#49A649" offset="100%"></stop>
        </radialGradient>
        <linearGradient x1="0.0167701863%" y1="49.9297013%" x2="100.168944%" y2="49.9297013%" id="linearGradient-4">
            <stop stop-color="#338A47" offset="0%"></stop>
            <stop stop-color="#2D6D3A" offset="27.57%"></stop>
            <stop stop-color="#22502B" offset="60.49%"></stop>
            <stop stop-color="#193F21" offset="85.7%"></stop>
            <stop stop-color="#16391C" offset="100%"></stop>
        </linearGradient>
        <radialGradient cx="69.5856431%" cy="60.5557067%" fx="69.5856431%" fy="60.5557067%" r="51.7276547%" gradientTransform="translate(0.695856,0.605557),scale(0.903001,1.000000),translate(-0.695856,-0.605557)" id="radialGradient-5">
            <stop stop-color="#FFC713" offset="0%"></stop>
            <stop stop-color="#FCBF18" offset="11.81%"></stop>
            <stop stop-color="#F5AB20" offset="31.58%"></stop>
            <stop stop-color="#EC8C26" offset="56.88%"></stop>
            <stop stop-color="#E16228" offset="86.46%"></stop>
            <stop stop-color="#E05B29" offset="90.3%"></stop>
            <stop stop-color="#DD5430" offset="100%"></stop>
        </radialGradient>
        <linearGradient x1="87.5790466%" y1="27.6627518%" x2="36.460045%" y2="57.0911449%" id="linearGradient-6">
            <stop stop-color="#CA2027" offset="0%"></stop>
            <stop stop-color="#C73A27" offset="57.32%"></stop>
            <stop stop-color="#C64427" offset="100%"></stop>
        </linearGradient>
        <radialGradient cx="69.4407082%" cy="32.9932977%" fx="69.4407082%" fy="32.9932977%" r="51.0589869%" gradientTransform="translate(0.694407,0.329933),scale(0.957460,1.000000),translate(-0.694407,-0.329933)" id="radialGradient-7">
            <stop stop-color="#C7EAFB" offset="0%"></stop>
            <stop stop-color="#BDE1F7" offset="13.43%"></stop>
            <stop stop-color="#A2CDEE" offset="35.91%"></stop>
            <stop stop-color="#79B1E0" offset="64.68%"></stop>
            <stop stop-color="#3A91CF" offset="98.31%"></stop>
            <stop stop-color="#358FCE" offset="100%"></stop>
        </radialGradient>
    </defs>
    <g id="Page-1" stroke="none" stroke-width="1" fill="none" fill-rule="evenodd">
        <g id="What's-happening-this-week" transform="translate(-371.000000, -87.000000)">
            <g id="weDevs-Logo" transform="translate(371.000000, 87.000000)">
                <g id="Group" transform="translate(33.200000, 4.400000)">
                    <polygon id="Path" fill="#5A5B5B" points="0.0400000006 4.64000007 3.40000005 4.64000007 6.00000009 12.5200002 6.08000009 12.5200002 9.12000014 5.56000008 12.1200002 12.5200002 12.2000002 12.5200002 14.8000002 4.64000007 18.1200003 4.64000007 12.5200002 19.4400003 9.16000014 11.5200002 9.08000014 11.5200002 5.72000009 19.4400003"></polygon>
                    <path d="M21.9600003,6.32000009 C23.4000003,4.96000007 25.1600004,4.24000006 27.2400004,4.20000006 C29.3200004,4.16000006 31.1600005,4.96000007 32.8400005,6.5200001 L33.4400003,7.12000011 L24.8800004,15.6800002 C25.6000004,16.3200002 26.5200004,16.6400002 27.6400004,16.6000002 C28.7600004,16.5600002 29.8000004,16.0800002 30.7600005,15.2000002 C31.4800005,14.4000002 31.9200005,13.6000002 32.0800005,12.7600002 C32.2000005,11.9200002 32.2400005,11.2400002 32.1200005,10.6800002 L35.0000005,9.88000015 C35.1600005,10.8000002 35.0800005,11.9600002 34.7600005,13.3200002 C34.4400003,14.6800002 33.7600005,15.9600002 32.6400005,17.1600003 C30.9200005,18.7600003 29.0800004,19.6000003 27.0400004,19.6000003 C25.0000004,19.6000003 23.2000003,18.8800003 21.6400003,17.3200003 C20.2000003,15.8400002 19.4800003,14.0800002 19.4400003,12.0400002 C19.4400003,10.0000001 20.2800003,8.08000012 21.9600003,6.32000009 Z M23.0800003,13.8800002 L29.0400004,7.92000012 C28.1200004,7.44000011 27.1600004,7.20000011 26.2000004,7.28000011 C25.2400004,7.36000011 24.3600004,7.76000012 23.5600004,8.56000013 C22.8000003,9.32000014 22.4000003,10.2000002 22.3200003,11.1200002 C22.2800003,12.0400002 22.5200003,12.9600002 23.0800003,13.8800002 Z" id="Shape" fill="#5A5B5B" fill-rule="nonzero"></path>
                    <path d="M52.3600008,0.200000003 L52.3600008,18.8800003 L49.4000007,18.8800003 L49.4000007,17.4000003 L49.3200007,17.4000003 C48.8800007,17.8800003 48.2400007,18.4800003 47.4000007,18.8800003 C46.5600007,19.2800003 45.6000007,19.4800003 44.5600007,19.4800003 C42.2800006,19.4000003 40.4400006,18.6400003 39.0800006,17.1600003 C37.7200006,15.7200002 37.0400006,13.9200002 37.0000006,11.8400002 C37.0400006,9.88000015 37.7200006,8.16000012 39.1200006,6.6000001 C40.4800006,5.08000008 42.3600006,4.24000006 44.7200007,4.16000006 C45.8400007,4.16000006 46.7600007,4.48000007 47.5200007,4.88000007 C48.2800007,5.28000008 48.8800007,5.56000008 49.3200007,6.5200001 L49.4000007,6.5200001 L49.4000007,0.120000002 L52.3600008,0.120000002 L52.3600008,0.200000003 Z M49.5200007,11.8400002 C49.4800007,10.5600002 49.0400007,9.44000014 48.2000007,8.56000013 C47.3600007,7.64000011 46.2800007,7.20000011 44.9600007,7.16000011 C43.6000006,7.20000011 42.4800006,7.68000011 41.6400006,8.60000013 C40.8000006,9.52000014 40.3600006,10.6000002 40.3200006,11.8800002 C40.3600006,13.2400002 40.8000006,14.3600002 41.6800006,15.2400002 C42.5600006,16.1200002 43.6400007,16.6000002 44.9600007,16.6400002 C46.2800007,16.6000002 47.3600007,16.1200002 48.2000007,15.2000002 C49.0400007,14.2800002 49.4800007,13.1600001 49.5200007,11.8400002 Z" id="Shape" fill="url(#radialGradient-1)" fill-rule="nonzero"></path>
                    <path d="M58.1600009,6.32000009 C59.6000009,4.96000007 61.3600009,4.24000006 63.4400009,4.20000006 C65.520001,4.16000006 67.360001,4.96000007 69.040001,6.5200001 L69.6400008,7.12000011 L61.0800009,15.6800002 C61.8000009,16.3200002 62.7200009,16.6400002 63.840001,16.6000002 C64.960001,16.5600002 66.000001,16.0800002 66.960001,15.2000002 C67.680001,14.4000002 68.120001,13.6000002 68.280001,12.7600002 C68.400001,11.9200002 68.440001,11.2400002 68.320001,10.6800002 L71.2000011,9.88000015 C71.3600011,10.8000002 71.2800011,11.9600002 70.9600011,13.3200002 C70.6400008,14.6800002 69.960001,15.9600002 68.840001,17.1600003 C67.120001,18.7600003 65.280001,19.6000003 63.2400009,19.6000003 C61.2000009,19.6000003 59.4000009,18.8800003 57.8400009,17.3200003 C56.4000008,15.8400002 55.6800008,14.0800002 55.6400008,12.0400002 C55.6400008,10.0000001 56.4800008,8.08000012 58.1600009,6.32000009 Z M59.3200009,13.8800002 L65.280001,7.92000012 C64.360001,7.44000011 63.4000009,7.20000011 62.4800009,7.28000011 C61.5200009,7.36000011 60.6400009,7.76000012 59.8400009,8.56000013 C59.0800009,9.32000014 58.6800009,10.2000002 58.6000009,11.1200002 C58.5200009,12.0400002 58.7600009,12.9600002 59.3200009,13.8800002 Z" id="Shape" fill="#5A5B5B" fill-rule="nonzero"></path>
                    <polygon id="Path" fill="#5A5B5B" points="72.3200011 4.64000007 75.7200011 4.64000007 78.9600012 13.0000002 79.0400012 13.0000002 82.2400012 4.64000007 85.6800013 4.64000007 79.0000012 19.4800003"></polygon>
                    <path d="M92.7200014,4.24000006 C93.9600014,4.24000006 95.0400014,4.48000007 96.0000014,4.88000007 C96.9600014,5.28000008 97.7600015,5.76000009 98.4000015,6.24000006 L96.6400014,8.40000013 C96.2000014,8.00000012 95.6400014,7.64000011 94.9600014,7.28000011 C94.2800014,6.9600001 93.5600014,6.7600001 92.8000014,6.7600001 C91.9600014,6.8000001 91.2800014,6.9600001 90.8000014,7.32000011 C90.3200013,7.68000011 90.0800013,8.08000012 90.0400013,8.60000013 C90.0800013,9.32000014 90.5200013,9.80000015 91.4000014,10.0000001 C92.2800014,10.2000002 93.2800014,10.4000002 94.4400014,10.5600002 C95.6000014,10.7200002 96.6000014,11.0800002 97.4800015,11.6400002 C98.3600015,12.2000002 98.8400015,13.2000002 98.8800015,14.6000002 C98.8800015,15.8400002 98.3600015,16.9600003 97.3600015,17.8800003 C96.3200014,18.8400003 94.8000014,19.3600003 92.7600014,19.4000003 C91.1600014,19.3600003 89.8000013,19.0400003 88.6800013,18.5200003 C87.5600013,17.9600003 86.7200013,17.4400003 86.2400013,16.9200003 L88.3600013,14.7600002 C88.8800013,15.2800002 89.5200013,15.8000002 90.3200013,16.2000002 C91.0800014,16.6400002 91.9600014,16.8400003 92.9600014,16.8800003 C93.8800014,16.8800003 94.5600014,16.6400002 95.0800014,16.2800002 C95.5600014,15.8800002 95.8400014,15.4800002 95.8400014,15.0000002 C95.8400014,14.8400002 95.8000014,14.6800002 95.7600014,14.4800002 C95.6800014,14.3200002 95.6000014,14.1600002 95.4400014,14.0000002 C95.0000014,13.6400002 94.3600014,13.3600002 93.4400014,13.2000002 C92.5200014,13.0400002 91.6000014,12.8400002 90.6000014,12.6000002 C89.6000013,12.3600002 88.7600013,11.9600002 88.0400013,11.4400002 C87.3200013,10.8800002 86.9600013,10.0400001 86.9600013,8.88000013 C86.9600013,7.56000011 87.4800013,6.4400001 88.5200013,5.52000008 C89.5200013,4.72000007 90.9200014,4.28000006 92.7200014,4.24000006 Z" id="Path" fill="#5A5B5B"></path>
                </g>
                <g id="Group">
                    <path d="M6.36000009,8.44000013 C6.36000009,8.44000013 5.40000008,2.72000004 10.8400002,2.04000003 C10.8400002,2.04000003 15.4000002,1.44000002 17.1200003,6.9600001 C17.1600003,6.9600001 10.2800002,7.44000011 6.36000009,8.44000013 Z" id="Path" fill="url(#linearGradient-2)"></path>
                    <path d="M17.1600003,6.9600001 C17.1600003,6.9600001 2.16000003,7.36000011 0.840000013,12.1200002 C0.840000013,12.1200002 -2.44000004,18.6400003 7.60000011,27.2400004 C7.60000011,27.2400004 12.0800002,29.9600001 15.4400002,26.2400004 C15.4400002,26.2400004 9.68000014,20.6000003 7.76000012,17.0400003 C7.76000012,17.0400003 12.9600002,11.5200002 17.8000003,9.24000014 C17.8000003,9.24000014 17.6400003,8.24000012 17.1600003,6.9600001 Z" id="Path" fill="url(#radialGradient-3)"></path>
                    <path d="M7.72000012,17.1200003 C7.72000012,17.1200003 3.64000005,21.3200003 7.0400001,25.1200003 C7.0400001,25.1200003 10.3600002,28.3600004 14.4000002,25.5600004 C14.4000002,25.5600004 9.60000014,19.9200003 7.72000012,17.1200003 Z" id="Path" fill="url(#linearGradient-4)"></path>
                    <path d="M9.64000014,15.2000002 C9.64000014,15.2000002 16.8800003,19.6800003 21.1200003,19.6000003 C21.1200003,19.6000003 24.0800004,14.8000002 25.2000004,8.44000013 C25.2000004,8.44000013 30.0000004,9.96000015 29.8800004,15.1600002 C29.8800004,15.1600002 30.4400005,19.1600003 25.4800004,25.2000004 C25.4800004,25.2000004 22.2000003,29.0000004 18.9600003,28.3600004 C18.9600003,28.3600004 12.6000002,25.4400001 7.76000012,17.0800003 C7.72000012,17.1200003 8.68000013,16.0400002 9.64000014,15.2000002 Z" id="Path" fill="url(#radialGradient-5)"></path>
                    <path d="M25.0400004,9.76000015 C25.0400004,9.76000015 29.1200004,11.4000002 28.7200004,15.5600002 C28.7200004,15.5600002 27.8800004,21.2400003 21.0800003,19.8000003 C21.0800003,19.8000003 24.2000004,12.9200002 25.0400004,9.76000015 Z" id="Path" fill="url(#linearGradient-6)"></path>
                    <path d="M5.00000007,8.88000013 C5.00000007,8.88000013 3.84000006,3.28000005 9.12000014,1.08000002 C9.12000014,1.08000002 10.6400002,0.160000002 16.4400002,0.120000002 C16.4400002,0.120000002 22.9200003,-0.120000002 25.1200004,4.04000006 C25.1200004,4.04000006 27.1600004,8.72000013 21.0800003,19.8000003 L20.3600003,19.6800003 C20.3600003,19.6800003 19.8800003,19.6000003 18.4400003,19.2400003 C18.4400003,19.2400003 18.9600003,8.64000013 16.0000002,4.84000007 C16.0000002,4.84000007 13.9200002,1.40000002 10.0400001,2.20000003 C10.0400001,2.20000003 5.76000009,3.48000005 6.32000009,8.44000013 C6.36000009,8.44000013 6.20000009,8.52000013 5.00000007,8.88000013 Z" id="Path" fill="url(#radialGradient-7)"></path>
                </g>
            </g>
        </g>
    </g>
</svg>