<?xml version="1.0" encoding="UTF-8"?>
<svg width="31px" height="31px" viewBox="0 0 31 31" version="1.1" xmlns="http://www.w3.org/2000/svg" xmlns:xlink="http://www.w3.org/1999/xlink">
    <!-- Generator: Sketch 63.1 (92452) - https://sketch.com -->
    <title>Who is Out This week</title>
    <desc>Created with Sketch.</desc>
    <defs>
        <linearGradient x1="50%" y1="0%" x2="50%" y2="100%" id="linearGradient-1">
            <stop stop-color="#3CC2FF" offset="0%"></stop>
            <stop stop-color="#3D69FF" offset="100%"></stop>
        </linearGradient>
    </defs>
    <g id="Page-1" stroke="none" stroke-width="1" fill="none" fill-rule="evenodd">
        <g id="What's-happening-this-week" transform="translate(-401.000000, -881.000000)">
            <g id="Who-is-Out-This-week" transform="translate(401.000000, 881.000000)">
                <rect id="Rectangle" fill="url(#linearGradient-1)" x="0" y="0" width="30.7999995" height="30.7999995" rx="4.89999992"></rect>
                <path d="M14.1617665,9 C14.2495859,9 14.3255493,9.03467006 14.3897632,9.10378032 C14.4539061,9.17319706 14.4860308,9.25506437 14.4860308,9.34984196 C14.4860308,9.3791487 14.489403,9.4520516 14.4961119,9.56866558 C14.5029273,9.68531788 14.5045602,9.78201095 14.5012235,9.85851494 C14.4978158,9.93509554 14.4876281,10.0206789 14.4707316,10.1154565 C14.4537641,10.2102341 14.420042,10.2813747 14.3694589,10.3287635 C14.3186629,10.3762673 14.2495859,10.3997893 14.161731,10.3997893 L14.161731,10.3997893 L10.9186979,10.3997893 C10.4727857,10.3997893 10.0910164,10.5712241 9.77342559,10.9139788 C9.45587024,11.2566952 9.29716356,11.6685602 9.29716356,12.1498036 L9.29716356,12.1498036 L9.29716356,19.8499279 C9.29716356,20.3310947 9.45590574,20.742998 9.77342559,21.0857144 C10.0910164,21.4286606 10.4727857,21.5998656 10.9186979,21.5998656 L10.9186979,21.5998656 L14.0806206,21.5998656 C14.0806206,21.5998656 14.1194187,21.6035816 14.1971569,21.6108987 C14.2749307,21.6181009 14.3137288,21.6290957 14.3137288,21.6436533 C14.3137288,21.6580576 14.3407419,21.6782467 14.3948747,21.7036842 C14.4490075,21.7291217 14.472613,21.7621444 14.465762,21.8019863 C14.4588756,21.8420963 14.4658685,21.8916687 14.4861728,21.9499757 C14.4861728,21.9792441 14.489474,22.0521087 14.4962539,22.168876 C14.5030377,22.2855283 14.5047022,22.3820298 14.5013654,22.4586104 C14.4979577,22.5348845 14.4877701,22.6208892 14.4708736,22.7155519 C14.4539061,22.8104444 14.420184,22.8815085 14.3696009,22.9289739 C14.3188403,22.9761711 14.2497279,23 14.161873,23 L14.161873,23 L10.9186979,23 C10.1147639,23 9.42725973,22.691915 8.85629195,22.0754775 C8.28546615,21.4595764 8,20.7175222 8,19.8498896 L8,19.8498896 L8,12.1499185 C8,11.2822093 8.28546615,10.5403467 8.85629195,9.92421566 C9.42725973,9.30808466 10.1147639,9 10.9186979,9 L10.9186979,9 Z M17.8969998,10.4924981 L23,16.0000573 L17.8969998,21.5073482 L17.8970353,17.9190163 L14.0590537,17.9189908 C12.9992293,17.9189837 12.1400755,17.0598243 12.1400755,15.9999998 C12.1400755,14.9401774 12.9992313,14.0810216 14.0590537,14.0810216 L14.0590537,14.0810216 L17.8969998,14.0810216 L17.8969998,10.4924981 Z" id="Combined-Shape" fill="#FFFFFF" fill-rule="nonzero"></path>
            </g>
        </g>
    </g>
</svg>