<?xml version="1.0" encoding="UTF-8"?>
<svg width="31px" height="31px" viewBox="0 0 31 31" version="1.1" xmlns="http://www.w3.org/2000/svg" xmlns:xlink="http://www.w3.org/1999/xlink">
    <!-- Generator: Sketch 63.1 (92452) - https://sketch.com -->
    <title>Work Anniversary This week</title>
    <desc>Created with Sketch.</desc>
    <defs>
        <linearGradient x1="50%" y1="0%" x2="50%" y2="100%" id="linearGradient-1">
            <stop stop-color="#FFBA67" offset="0%"></stop>
            <stop stop-color="#FF635E" offset="100%"></stop>
        </linearGradient>
    </defs>
    <g id="Page-1" stroke="none" stroke-width="1" fill="none" fill-rule="evenodd">
        <g id="What's-happening-this-week" transform="translate(-401.000000, -1580.000000)">
            <g id="Work-Anniversary-This-week" transform="translate(401.000000, 1580.000000)">
                <rect id="Rectangle" fill="url(#linearGradient-1)" x="0" y="0" width="30.7999995" height="30.7999995" rx="4.89999992"></rect>
                <path d="M9.899491,17.7021775 L13.2949542,21.09948 L8.50159472,23 L8,22.4981336 L9.899491,17.7021775 Z M10.9569254,15.0327702 L15.9629161,20.0414728 L14.1841604,20.746811 L10.2518547,16.8124896 L10.9569254,15.0327702 Z M11.9072431,11.0141746 L19.9792215,19.0906403 L19.3583793,19.7118188 L18.6307637,18.9836945 L16.8522368,19.6889182 L11.3092891,14.1429678 L12.0140165,12.3634774 L11.2864009,11.6353531 L11.9072431,11.0141746 Z M17.98772,16.1131055 C18.8430517,15.2573105 20.2361414,15.2563945 21.0922742,16.1131055 L21.0922742,16.1131055 L20.4714321,16.734284 C19.9582788,16.2208528 19.122631,16.2199368 18.6085622,16.734284 L18.6085622,16.734284 Z M18.6085622,14.2492265 C19.4638939,13.3934315 20.8569836,13.3925154 21.7131164,14.2492265 L21.7131164,14.2492265 L21.0922742,14.8702905 C20.579121,14.3576608 19.7434731,14.3568593 19.2294044,14.8702905 L19.2294044,14.8702905 Z M18.7942998,8.50495696 C19.4138832,7.88595402 20.3849147,7.8036264 21.0212064,8.43934678 C21.3474776,8.7657947 21.4559676,9.17296719 21.4418914,9.55941466 C21.834996,9.54269721 22.2350816,9.65342157 22.5613528,9.98067099 C23.1898625,10.6087197 23.1208546,11.5833688 22.4956637,12.2087839 C21.7729691,12.9318701 20.6231808,12.7831307 19.5133324,12.6887803 C19.277584,12.6689713 19.1018027,12.6578645 18.9637869,12.6514523 L18.9637869,12.6514523 L16.8746673,14.7415892 L16.2538251,14.1205252 L18.35107,12.0221441 C18.345348,11.8972214 18.3348194,11.7314211 18.3145633,11.4902779 C18.2226673,10.40937 18.0662265,9.23285224 18.7942998,8.50495696 Z M14.8831657,9.90063345 C15.7389552,10.7568865 15.7389552,12.1506164 14.8831657,13.0068695 L14.8831657,13.0068695 L14.2623235,12.385691 C14.7759346,11.8718018 14.7759346,11.0357012 14.2623235,10.5218119 L14.2623235,10.5218119 Z M16.7460356,9.27945495 C17.6013673,10.135708 17.6013673,11.5294379 16.7460356,12.385691 L16.7460356,12.385691 L16.1251934,11.7645125 C16.6384611,11.2506232 16.6384611,10.4145227 16.1251934,9.90063345 L16.1251934,9.90063345 Z" id="Combined-Shape" fill="#FFFFFF" fill-rule="nonzero"></path>
            </g>
        </g>
    </g>
</svg>